<svg width="144" height="91" viewBox="0 0 144 91" fill="none" xmlns="http://www.w3.org/2000/svg">
<path d="M1.27692 86.5386V75.7693H3.76923V84.5078H9.16923V86.5386H1.27692ZM12.8541 80.1078H18.0387V82.0463H12.8541V80.1078ZM13.0387 84.5386H18.9002V86.5386H10.5618V75.7693H18.7002V77.7693H13.0387V84.5386ZM23.9638 86.5386L19.3177 75.7693H22.01L26.0715 85.3078H24.4869L28.61 75.7693H31.0869L26.4254 86.5386H23.9638ZM34.2784 80.1078H39.463V82.0463H34.2784V80.1078ZM34.463 84.5386H40.3245V86.5386H31.9861V75.7693H40.1245V77.7693H34.463V84.5386ZM42.3076 86.5386V75.7693H44.7999V84.5078H50.1999V86.5386H42.3076ZM52.7966 86.6617C52.3864 86.6617 52.0325 86.5232 51.7351 86.2463C51.4479 85.9591 51.3043 85.595 51.3043 85.154C51.3043 84.7129 51.4479 84.3591 51.7351 84.0924C52.0325 83.8155 52.3864 83.677 52.7966 83.677C53.2171 83.677 53.571 83.8155 53.8582 84.0924C54.1454 84.3591 54.2889 84.7129 54.2889 85.154C54.2889 85.595 54.1454 85.9591 53.8582 86.2463C53.571 86.5232 53.2171 86.6617 52.7966 86.6617Z" fill="white"/>
<path d="M58.6538 86.5386V76.754H54.8692V75.7693H63.5769V76.754H59.7923V86.5386H58.6538ZM65.3957 86.5386V75.7693H69.4264C70.3393 75.7693 71.1239 75.9181 71.7803 76.2155C72.4367 76.5027 72.9393 76.9232 73.288 77.477C73.647 78.0206 73.8264 78.6822 73.8264 79.4617C73.8264 80.2206 73.647 80.877 73.288 81.4309C72.9393 81.9745 72.4367 82.395 71.7803 82.6924C71.1239 82.9796 70.3393 83.1232 69.4264 83.1232H66.0264L66.5341 82.6001V86.5386H65.3957ZM72.7495 86.5386L69.9803 82.6309H71.2111L73.9957 86.5386H72.7495ZM66.5341 82.6924L66.0264 82.154H69.3957C70.4726 82.154 71.288 81.9181 71.8418 81.4463C72.4059 80.9745 72.688 80.3129 72.688 79.4617C72.688 78.6001 72.4059 77.9334 71.8418 77.4617C71.288 76.9899 70.4726 76.754 69.3957 76.754H66.0264L66.5341 76.2155V82.6924ZM74.7904 86.5386L79.7135 75.7693H80.8365L85.7596 86.5386H84.5596L80.0365 76.4309H80.4981L75.975 86.5386H74.7904ZM76.7289 83.6617L77.0673 82.7386H83.3289L83.6673 83.6617H76.7289ZM90.0468 86.5386L85.2775 75.7693H86.5083L90.9698 85.9078H90.2929L94.7852 75.7693H95.9391L91.1698 86.5386H90.0468ZM98.5174 80.5847H104.21V81.554H98.5174V80.5847ZM98.6405 85.554H105.117V86.5386H97.502V75.7693H104.887V76.754H98.6405V85.554ZM107.794 86.5386V75.7693H108.932V85.554H114.963V86.5386H107.794Z" fill="#35733D"/>
<g clip-path="url(#clip0_24_139)">
<path d="M90.7309 5.66706C90.3955 5.8012 88.8418 7.54494 82.9511 14.3523C78.8935 19.0246 75.3613 23.0934 75.1042 23.3952L74.6124 23.9205L73.8858 23.3058C73.0139 22.5457 72.1868 22.0762 70.633 21.4167C69.124 20.7907 68.5763 20.5113 67.9951 20.0642C67.425 19.6282 66.4637 19.4047 65.4912 19.4718C64.8094 19.5165 64.7758 19.5388 64.2505 20.1312C63.3115 21.1708 62.1378 22.6686 60.5841 24.7812C59.7681 25.899 58.9633 26.9833 58.8068 27.1733L58.505 27.531L57.7338 26.9609C57.2978 26.6591 56.303 26.0443 55.4982 25.5972C53.788 24.6471 53.4079 24.39 53.4862 24.2447C53.6427 23.9988 53.3185 24.1776 53.0726 24.4683C51.9771 25.8208 50.9711 27.3633 49.7304 29.6213C48.8585 31.2085 47.8078 32.874 46.8018 34.316C45.6281 35.9815 43.7167 38.5636 43.6496 38.5636C43.6273 38.5636 43.3702 38.0941 43.0907 37.524C42.4871 36.3168 41.8164 35.3891 40.4975 33.9471C38.4184 31.678 33.5448 27.4751 30.3256 25.1837C29.5767 24.6471 29.5655 24.6471 28.7048 24.6471C27.9112 24.6583 27.7994 24.6918 27.4193 24.9936C26.8269 25.4631 25.385 27.2739 23.4735 29.9566C21.4951 32.7287 20.3326 34.0924 18.0411 36.328C15.5037 38.8095 13.5588 40.475 9.66885 43.5377C5.87955 46.5111 5.07474 47.2823 4.77294 48.143C4.6947 48.3889 3.81164 50.0209 2.81681 51.7758C1.2072 54.615 0.81597 55.3528 0.145297 56.873C0.0558739 57.0853 -1.54749e-05 57.2754 0.0335182 57.2977C0.100585 57.3648 1.12895 56.437 3.24157 54.3803C4.98532 52.6813 5.33184 52.4242 6.22607 52.1671C6.95263 51.9547 7.20972 51.8206 7.79097 51.3399C8.04806 51.1275 8.55107 50.8593 8.90876 50.7363C9.68003 50.4792 9.85888 50.3227 10.306 49.5291C11.7032 47.0364 14.4418 43.7054 16.3979 42.1181C17.1021 41.5481 19.4048 40.162 19.5054 40.2514C19.5277 40.2738 19.4271 40.7321 19.2818 41.2686C19.1365 41.8052 18.913 42.923 18.79 43.7389C18.6671 44.5661 18.5106 45.3597 18.4547 45.505C18.3652 45.7621 18.3541 45.751 18.287 45.3821C18.2535 45.1697 18.1417 44.4431 18.0411 43.7613C17.8622 42.5317 17.6499 41.8052 17.4487 41.8052C17.2475 41.8052 16.2526 42.6659 15.5149 43.493C15.1013 43.9513 14.1847 45.0244 13.4805 45.8851C12.2621 47.3606 12.1615 47.5282 11.6697 48.769C11.3902 49.4956 11.0214 50.2445 10.8649 50.4233C10.5966 50.7475 9.87006 51.1275 6.24842 52.8489C4.71705 53.5755 3.37571 55.0174 2.96212 56.4035C2.80563 56.94 2.80563 56.9512 3.09626 57.253C3.26393 57.4319 3.48748 57.566 3.59926 57.566C3.86753 57.566 4.95179 57.0183 7.20972 55.744C8.76345 54.8721 12.4745 52.726 13.3017 52.223C13.9835 51.7982 13.2346 52.3571 11.9044 53.2625C9.41176 54.9504 7.51152 56.4482 6.70672 57.376C6.50551 57.6107 6.37138 57.8231 6.40491 57.8566C6.43845 57.8901 6.93027 57.8343 7.50035 57.7448C8.0816 57.6442 9.15467 57.4877 9.89241 57.3983C10.6302 57.2977 11.6026 57.1524 12.0386 57.0518C12.4857 56.9624 12.8993 56.9065 12.9663 56.9512C13.0222 56.9847 13.134 57.2195 13.2122 57.4654C13.4358 58.2367 13.8158 58.3708 14.8554 58.0578C16.3197 57.6219 17.1357 56.1017 18.3205 51.5299C18.5665 50.5798 18.9018 49.3279 19.0583 48.7578C19.2036 48.1877 19.5389 46.3434 19.7848 44.6779C20.2543 41.481 20.489 40.4191 20.7126 40.4974C20.7908 40.5197 20.8579 40.7433 20.8803 40.9892C20.9138 41.5145 20.7797 42.3193 20.0755 45.7733C19.483 48.6572 19.2595 50.0992 19.0695 52.3236C18.9241 53.922 18.913 53.9555 18.4547 54.7603C17.8511 55.7775 17.5828 56.56 17.4375 57.7225C17.3369 58.4155 17.3369 58.7732 17.4375 59.1309L17.5604 59.6004L17.8399 59.3433C17.9964 59.198 18.6223 58.4826 19.2259 57.7337C20.3996 56.3141 20.9585 55.8446 21.0815 56.1688C21.1262 56.2582 21.0927 57.0071 21.0144 57.8231C20.8132 60.1034 20.8132 62.0148 21.0144 62.1489C21.5286 62.4731 21.741 61.8248 22.0763 59.0191C22.5905 54.615 23.1717 52.916 25.2732 49.6073C26.078 48.3331 26.4916 47.5953 26.4916 47.3941C26.4916 47.3382 26.391 47.2823 26.2568 47.2823C25.9215 47.2823 24.8931 48.3219 23.9207 49.6185C23.4624 50.2333 23.0376 50.7363 22.9817 50.7475C22.814 50.7475 22.9929 46.9582 23.3059 43.7613C23.6636 40.1397 23.6636 37.5352 23.3171 36.8981L23.1158 36.518L23.8536 34.9867C24.569 33.4888 25.2732 31.7674 25.4185 31.1526C25.4744 30.9291 25.452 30.8508 25.3179 30.8508C25.072 30.8508 24.8596 31.0968 23.1829 33.3323C20.422 37.0322 19.0583 38.4518 16.9345 39.8379C15.5149 40.7656 14.4306 41.4028 14.3636 41.3357C14.33 41.3133 14.6989 40.9668 15.1796 40.5756C16.4985 39.4802 19.2595 36.6633 20.612 35.0425C22.2663 33.0417 23.1047 31.9127 25.2173 28.7941C26.2121 27.3074 27.207 25.899 27.4193 25.6531L27.7994 25.2172L28.0788 25.5413C28.2353 25.7202 28.4477 26.1449 28.5595 26.4803C28.6713 26.8492 28.783 27.028 28.8389 26.9498C29.0289 26.6256 29.0737 27.3298 29.0066 30.0013C28.9731 31.5439 28.9842 33.2317 29.0289 33.7571L29.1296 34.7072L29.219 32.7846C29.2749 31.7227 29.286 30.1355 29.2525 29.2636L29.1854 27.6651L29.5767 28.8388C30.0685 30.3143 30.9292 33.6341 31.5216 36.328C32.2146 39.469 32.8183 41.4698 33.0753 41.4698C33.3548 41.4698 33.1536 39.279 32.5164 35.5008C32.3376 34.4054 32.2035 33.4888 32.2258 33.4553C32.2482 33.4329 32.3711 33.6565 32.5053 33.9471C32.6282 34.2489 33.0865 35.2885 33.5113 36.2721C35.8475 41.6263 39.4132 52.2677 41.0787 58.8514C41.9059 62.1154 42.2077 64.038 41.9394 64.2057C41.727 64.3286 40.8999 63.2332 38.206 59.2762C35.4115 55.1516 33.6901 52.9383 31.7564 50.9263C30.6609 49.7974 29.9232 49.1826 29.6661 49.1826C29.5767 49.1826 29.4984 49.4173 29.4537 49.8197C29.3643 50.6581 28.9172 52.2453 28.4924 53.2737C28.0565 54.302 26.9722 56.1352 25.452 58.3708C24.1666 60.2599 24.0213 60.6734 24.5019 60.9305C24.6696 61.02 25.6309 61.0982 27.1064 61.1541C30.7503 61.277 31.6334 61.5788 32.9189 63.1549C34.2267 64.7534 35.9033 65.3123 40.1286 65.5694C40.9558 65.6252 41.5705 65.7147 41.8388 65.8376C42.0847 65.9494 42.3753 66.0053 42.4871 65.9829C43.0125 65.8376 43.2137 64.7534 43.0348 63.0432C42.7442 60.204 41.7047 56.2582 39.5138 49.6744C38.7984 47.5506 38.2395 45.7845 38.2619 45.7621C38.2842 45.7398 38.4743 45.7733 38.6866 45.8292C38.8878 45.8963 39.3573 45.941 39.7038 45.941C40.3074 45.941 40.3521 45.9186 40.3521 45.6839C40.3521 45.5386 40.0839 44.4431 39.7485 43.2471C37.9936 36.9987 38.2507 36.8534 41.6488 42.1629C42.543 43.5601 43.4708 44.9462 43.7167 45.2368C44.3427 45.9857 45.1139 47.2935 46.2652 49.6185C47.8413 52.7595 50.5799 57.5325 51.217 58.259C51.4406 58.5161 51.2059 57.9684 50.457 56.5041C48.5567 52.8042 46.3882 48.3331 46.3882 48.0983C46.3882 47.9642 47.6289 48.7243 47.9308 49.0596C48.1431 49.2832 49.5515 50.9934 51.0606 52.8713C54.3133 56.9065 55.0287 57.7448 55.0846 57.5772C55.174 57.2977 54.4363 56.057 49.7975 48.7355C46.6341 43.7501 44.6668 40.5644 44.2197 39.7037L44.0297 39.3237L45.7958 37.6135C46.7683 36.6745 47.819 35.6014 48.1208 35.2214C48.4338 34.8525 48.7244 34.5395 48.7691 34.5395C48.9815 34.5395 53.855 38.0829 55.8894 39.7149C57.8902 41.3245 59.1422 42.487 59.7011 43.2806C60.9753 45.0579 61.1989 45.3038 61.9255 45.7845C62.9315 46.444 63.4457 47.2041 64.407 49.4397C65.1894 51.284 65.6365 52.0776 66.0836 52.5136C66.4078 52.8154 67.112 53.106 67.3244 53.0278C67.4026 53.0054 67.7268 52.5918 68.0398 52.1112C68.3527 51.6417 69.0905 50.5127 69.6829 49.6073C70.2753 48.7019 70.8119 47.9306 70.879 47.8971C70.9348 47.8524 71.0578 47.8748 71.1249 47.9418C71.2366 48.0312 71.2478 47.9083 71.1584 47.3382C71.1025 46.9358 71.0019 46.6117 70.9348 46.6117C70.879 46.6117 69.9624 47.4724 68.9116 48.5119C66.8326 50.5798 66.7543 50.6245 66.0948 50.1215C65.6253 49.7638 65.29 49.1043 64.8317 47.6177C64.6417 46.9694 64.3511 46.2204 64.2169 45.9298C63.8928 45.3038 63.3003 44.7561 62.775 44.6108C61.7578 44.3314 60.8189 43.303 59.2539 40.7768C57.499 37.9376 55.3305 33.9918 55.3305 33.6453C55.3305 33.5894 55.5317 33.5335 55.7664 33.5335C56.0124 33.5335 56.2359 33.5 56.2583 33.4441C56.3701 33.2653 56.113 32.8964 55.6658 32.5834C54.861 32.0245 54.5145 31.0409 54.2686 28.6264C54.1792 27.7434 54.1121 26.9945 54.1345 26.9721C54.1568 26.9609 54.3469 27.1733 54.5481 27.4639C55.0622 28.1793 58.5609 31.7451 59.4216 32.4269C60.26 33.0864 61.0312 33.4553 61.5119 33.3994C61.836 33.3659 61.9031 33.4218 62.3838 34.126C62.6744 34.5395 63.088 35.2326 63.3227 35.6685C63.7363 36.4621 63.7475 36.5292 63.5463 37.3564C63.4792 37.6246 63.5015 37.6693 63.781 37.7476C64.3846 37.9041 65.3012 37.8482 65.4241 37.6582C65.7148 37.1999 63.468 33.6677 60.0588 29.1965C59.6005 28.5929 59.5558 27.9558 59.947 27.4192C60.6065 26.5026 62.2832 24.3006 63.1327 23.2275C63.971 22.1656 64.1499 22.0091 64.6193 21.8526C64.91 21.752 65.2788 21.5508 65.4465 21.4055L65.7371 21.1261L65.916 21.5508C66.0054 21.7744 66.2625 22.5121 66.4749 23.194C67.235 25.5861 67.7044 26.1561 70.3424 27.9334C71.1919 28.5035 72.1421 29.2077 72.455 29.4983L73.0139 30.0125L73.0698 31.298L73.1257 32.5834L72.2762 35.0425C71.8179 36.4062 71.4043 37.77 71.3708 38.0829C71.2702 38.7983 71.4937 39.3013 72.265 40.095C73.1816 41.0451 73.3604 40.8103 72.7457 39.5025C72.5109 38.9995 72.388 38.5748 72.388 38.2282C72.388 37.7476 72.8463 36.1044 72.9804 36.1044C73.0139 36.1044 73.1928 36.4398 73.3828 36.8534C73.8858 37.9935 74.9142 39.469 75.8755 40.4303C76.5685 41.1345 76.8032 41.4587 77.0715 42.0846C78.1558 44.7338 81.565 51.0269 83.0181 53.0725C83.7447 54.1008 85.0078 55.0957 85.9467 55.3863C86.2038 55.4645 86.215 55.4534 86.1479 55.0733C85.9244 53.6873 83.0628 48.0424 80.872 44.6555C80.3019 43.7725 80.2572 43.6831 80.5478 43.8731C80.7267 43.9849 82.0121 44.8232 83.3982 45.7398C84.7842 46.6452 86.0026 47.3941 86.1032 47.3941C86.4497 47.3941 86.6398 47.2488 86.8633 46.824C86.9751 46.5893 87.3104 46.131 87.5899 45.818C88.1041 45.2368 88.3164 44.8567 88.7859 43.6495C89.0877 42.8782 91.4574 38.966 91.8375 38.5971C91.9828 38.463 92.1058 38.273 92.1058 38.1724C92.1058 37.9935 102.613 20.7349 103.172 20.0083C103.328 19.7959 103.653 19.2147 103.887 18.7228C104.435 17.5603 105.553 15.8836 106.358 15.0341C106.872 14.4864 106.95 14.4305 106.771 14.7547C106.648 14.9671 105.989 16.2302 105.296 17.5492C104.603 18.8681 103.82 20.3324 103.563 20.7907C102.579 22.5457 100.914 26.1785 97.2029 34.6625C96.2192 36.9316 96.1969 37.3117 97.1246 36.8422C97.6164 36.5851 99.1814 34.8525 99.9414 33.7347C100.321 33.1647 100.612 32.7734 100.579 32.8629C100.545 32.9523 100.076 34.0812 99.539 35.3779C97.7394 39.7484 97.5047 40.7433 98.1306 41.3692C98.4436 41.6822 98.4995 41.6934 99.5055 41.6934C101.216 41.6934 101.719 41.9505 101.719 42.8335C101.719 43.303 101.819 43.3589 102.076 43.0571C102.322 42.7776 102.367 42.5988 102.557 40.7992C102.859 37.96 102.937 37.5687 103.418 36.5516C103.686 35.9815 104.133 34.5954 104.547 33.0864L105.24 30.5714L105.251 32.6393C105.251 33.7794 105.307 35.0873 105.385 35.5567L105.508 36.4062L105.005 37.7252C104.737 38.4518 104.446 39.1225 104.379 39.2007C104.301 39.3013 104.312 39.4243 104.446 39.6367C104.837 40.2179 105.34 39.7484 105.687 38.4742C105.821 37.9935 105.843 37.9712 105.922 38.2282C105.966 38.3847 106.223 38.9436 106.492 39.469C107.028 40.5644 108.101 41.6822 108.817 41.9169C109.32 42.0846 109.946 41.9728 110.102 41.6934C110.337 41.2575 110.225 40.9221 109.711 40.4191C109.13 39.849 109.141 39.972 109.376 37.3899C109.554 35.3779 109.778 34.4613 110.516 32.7064C110.952 31.678 111.075 31.4768 111.365 31.3538C111.79 31.175 111.913 31.2197 112.606 31.7674C113.277 32.2928 113.824 32.3375 114.327 31.9127C115.043 31.3203 115.311 29.7554 114.976 28.2352C114.64 26.7597 114.249 25.9437 112.148 22.3556C111.198 20.746 111.108 20.5113 110.717 19.0582C110.493 18.1975 110.214 17.1803 110.091 16.7891C109.923 16.2637 109.901 16.0401 109.99 15.8725C110.057 15.7495 110.147 15.6489 110.203 15.6489C110.247 15.6489 110.56 16.5655 110.885 17.6833C111.555 20.0418 112.014 21.249 112.416 21.7744C112.606 22.0315 113.064 22.3221 113.992 22.758C114.707 23.0934 115.333 23.4287 115.378 23.507C115.579 23.82 115.456 24.2224 115.02 24.6918C114.774 24.9489 114.573 25.2172 114.573 25.2731C114.573 25.4631 115.11 25.9326 115.333 25.9326C115.635 25.9326 116.44 25.3178 116.641 24.9377C116.921 24.3788 116.854 23.9764 116.339 23.2163C115.333 21.7185 114.372 20.679 113.433 20.0865C113.131 19.8965 113.12 19.8518 113.12 19.0358C113.12 18.5552 113.198 17.538 113.288 16.7555C113.388 15.9842 113.456 14.9671 113.433 14.5199C113.4 13.7151 113.388 13.6928 113.053 13.5363C112.394 13.2457 111.455 11.4684 111.354 10.3171C111.287 9.56814 111.455 9.47872 112.259 9.88112C112.852 10.1717 114.462 11.1666 114.339 11.1778C114.305 11.1778 113.97 11.0548 113.59 10.8983C112.885 10.6189 112.45 10.5406 112.45 10.7083C112.45 10.7642 112.785 11.4572 113.198 12.2508C113.612 13.0445 114.014 13.9722 114.093 14.3076C114.182 14.6988 114.238 15.6936 114.238 17.0014V19.0917L114.73 20.0754C115.311 21.2267 116.25 22.2998 117.904 23.7082C119.995 25.4966 120.878 26.335 121.738 27.3745C122.867 28.727 123.068 29.1406 123.247 30.6049C123.337 31.2644 123.46 32.0804 123.538 32.4157L123.672 33.0305L123.817 31.6892C123.907 30.9179 123.952 29.6772 123.929 28.7829C123.884 27.0392 123.739 26.5026 123.024 25.4296C122.454 24.5577 122.062 23.7529 121.124 21.4167C120.654 20.2654 120.017 18.8905 119.715 18.3875C119.067 17.3144 118.743 16.6214 118.15 15.0118L117.725 13.8605L118.374 14.4193C119.112 15.0565 120.05 16.1743 120.676 17.1579C121.191 17.9627 122.32 20.3213 122.521 20.9919C122.633 21.372 122.778 21.562 123.169 21.8303C124.142 22.4786 131.541 28.2799 131.407 28.2799C131.385 28.2799 131.128 28.1793 130.848 28.0675L130.345 27.844L130.267 28.3693C130.178 29.0624 129.976 29.3418 129.406 29.6325C128.568 30.046 127.763 30.6608 127.763 30.862C127.763 30.9738 128.378 31.6892 129.138 32.4605C130.312 33.6565 130.647 33.9248 131.508 34.3719C132.905 35.1096 133.956 35.825 134.347 36.2945C134.526 36.5068 134.895 37.1328 135.163 37.6805L135.666 38.6754L135.867 37.8594C136.057 37.0881 136.057 36.9763 135.878 35.4338C135.778 34.5395 135.599 33.5112 135.476 33.1423C135.364 32.7734 135.23 32.2481 135.197 31.9686C135.152 31.7004 135.029 31.3427 134.928 31.1862C134.816 31.0185 135.197 31.2532 135.867 31.7786C139.578 34.6737 142.261 36.6075 142.887 36.8422C143.703 37.144 142.328 35.7691 131.284 25.206C126.858 20.9696 122.454 16.722 121.504 15.783C119.603 13.894 119.179 13.5363 117.2 12.2173C114.07 10.1159 111.499 8.75216 110.482 8.6292C110.013 8.58449 110.002 8.58449 109.767 9.06514C109.208 10.1606 107.464 12.4632 106.078 13.9163C105.217 14.8218 104.793 15.3695 104.346 16.1407C104.167 16.4425 103.999 16.6326 103.977 16.5543C103.898 16.3084 102.837 18.0186 102.837 18.3875C102.837 18.4881 102.356 19.5388 101.775 20.7237C100.925 22.4562 100.579 23.0375 99.9973 23.7082C99.6061 24.1553 98.9578 24.9154 98.5666 25.3737C98.0971 25.9326 97.7282 26.2455 97.4935 26.3238C97.2364 26.3909 97.147 26.4803 97.1917 26.6032C97.2699 26.8492 95.8503 30.1243 94.8779 31.9575C93.9725 33.6341 92.7652 35.5232 91.3457 37.4793L90.3844 38.7871L89.669 39.0107C89.2777 39.1337 88.6294 39.2343 88.2494 39.2343H87.5452L86.0026 36.5404C85.1643 35.0537 84.1806 33.4776 83.8229 33.0417C83.4652 32.6058 81.5426 30.672 79.5418 28.7382C77.541 26.8044 75.8978 25.1725 75.8978 25.1278C75.8978 24.8036 76.602 23.7752 77.6416 22.568C78.9717 21.0367 80.9502 18.7787 80.9726 18.7787C80.9726 18.7787 80.9838 19.0582 80.9838 19.4047C80.9838 19.9748 81.0173 20.053 81.3638 20.366L81.7439 20.7013L81.1626 21.8191C80.8384 22.4339 80.5925 22.9593 80.6261 22.9816C80.6484 23.004 80.939 22.5345 81.2632 21.9309C81.9898 20.6119 82.0233 20.5672 82.2245 20.6454C82.5934 20.7796 82.8952 21.6626 83.6106 24.7254C84.1695 27.0727 84.5607 27.4863 84.8848 26.0667C84.9743 25.6531 85.3543 23.4958 85.7344 21.2602C86.1032 19.0246 86.4609 17.0797 86.5168 16.9232C86.5951 16.7108 86.6957 16.6437 86.8857 16.6773C87.0645 16.6996 87.2322 16.9232 87.5452 17.5603C87.8693 18.2534 88.0594 18.4881 88.4841 18.7675C88.9871 19.1141 88.9983 19.1141 88.9312 18.8681C88.8977 18.7228 88.8642 18.4769 88.8642 18.3204C88.8642 18.1639 88.7188 17.8174 88.54 17.538C88.1041 16.8785 88.0594 16.5543 88.1823 15.2242C88.2717 14.2293 88.3276 14.0505 88.5512 13.8605C88.8642 13.6034 89.3448 13.5698 89.5348 13.8046C89.7808 14.0952 89.5013 19.3264 89.0877 22.4786C88.9424 23.574 88.5176 25.2731 88.0817 26.5362C87.724 27.6093 87.6234 28.2464 87.9029 27.721C87.9923 27.5645 88.2941 26.7821 88.5735 25.9885C88.8642 25.1837 89.4454 23.6299 89.8702 22.5233C90.3285 21.3161 90.7085 20.1089 90.8203 19.5053C91.4239 16.2302 91.5692 15.593 91.7928 15.4365C92.0387 15.2689 93.1006 14.3746 94.509 13.1562C95.4927 12.3179 96.3086 11.7367 96.5434 11.7367C96.6216 11.7367 96.9681 12.3067 97.2923 12.9886C97.8847 14.2181 97.9406 14.2852 99.2037 15.4701C99.9191 16.1407 100.646 16.8897 100.802 17.1356C101.16 17.6721 101.26 17.4821 101.015 16.7443C100.59 15.5148 100.411 15.2242 99.5614 14.3076C98.9578 13.6704 98.5554 13.1227 98.3207 12.6309C97.4488 10.753 96.208 8.99807 94.6878 7.48906C92.8211 5.63353 91.871 5.19759 90.7309 5.66706ZM94.632 8.38329C95.7386 9.62403 96.6552 10.6859 96.6775 10.753C96.711 10.8424 96.4316 10.8536 95.7162 10.8089C94.7437 10.753 93.8942 10.5183 93.8942 10.3059C93.8942 10.25 93.6818 10.06 93.4247 9.8923C92.6982 9.43401 92.3517 9.05396 92.2734 8.69627C92.2175 8.43918 92.5305 6.14771 92.6199 6.14771C92.6311 6.14771 93.5365 7.15372 94.632 8.38329ZM88.0929 9.7917C87.8023 10.4624 87.4446 11.2225 87.3216 11.4796C87.1875 11.7367 87.0757 11.9714 87.0757 12.0049C87.0757 12.0385 87.5452 11.7702 88.1152 11.4125C89.3895 10.6189 90.2949 10.0935 90.1496 10.25C90.049 10.3618 85.7791 13.201 85.6002 13.2792C85.3431 13.391 85.5779 12.7874 86.1032 11.9714C86.7292 10.9766 88.5512 8.47271 88.6071 8.5286C88.6182 8.55096 88.3947 9.12103 88.0929 9.7917ZM109.141 13.894C109.264 13.9834 109.331 14.1064 109.309 14.1846C109.275 14.274 109.163 14.2181 108.996 14.0393C108.705 13.7263 108.806 13.6481 109.141 13.894ZM85.7344 14.2293C85.7344 14.2517 85.4773 14.4641 85.1531 14.6988C84.4154 15.2689 83.1076 16.8338 82.4145 17.9851C81.8892 18.857 81.6209 19.1364 81.7774 18.6446C81.8221 18.4993 81.8556 18.2534 81.8445 18.0857C81.8445 17.851 82.0457 17.5939 82.8057 16.8561C83.3423 16.3419 84.0241 15.6154 84.3148 15.2242C84.6166 14.8218 85.0078 14.4417 85.209 14.3635C85.5555 14.207 85.7344 14.1623 85.7344 14.2293ZM86.9639 14.397C86.9639 14.587 86.3044 15.4142 86.0473 15.5483C85.8014 15.6824 85.8014 15.6824 85.9914 15.4142C86.092 15.2689 86.2933 14.9559 86.4274 14.7211C86.6398 14.3523 86.9639 14.1623 86.9639 14.397ZM109.689 17.0126C109.621 18.1639 109.566 18.3651 109.118 18.9576C108.895 19.2594 108.615 19.6394 108.515 19.7847C108.403 19.9412 108.56 19.36 108.861 18.4993C109.331 17.1356 109.655 16.3196 109.711 16.3196C109.722 16.3196 109.711 16.6326 109.689 17.0126ZM109.499 22.3668C108.917 24.4906 108.56 25.6084 108.414 25.7537C108.358 25.8208 108.314 26.1449 108.314 26.5026C108.314 27.1398 108.615 27.8105 108.962 27.9222C109.04 27.9446 109.543 27.5198 110.08 26.9833C110.616 26.4356 110.963 26.1114 110.862 26.2679C110.516 26.7709 109.107 29.1183 109.029 29.3195C108.984 29.4424 108.884 29.4983 108.783 29.4536C108.403 29.3083 107.922 29.9007 107.464 31.0632L107.308 31.4656L107.352 30.9067C107.386 30.5937 107.464 29.5207 107.531 28.5035C107.632 27.0615 107.721 26.5026 107.934 25.9326C108.079 25.5302 108.425 24.4459 108.716 23.5293C109.23 21.8638 109.823 20.366 109.934 20.4778C109.968 20.5113 109.767 21.3608 109.499 22.3668ZM68.7775 22.0315C70.2418 22.4451 72.2427 23.2722 72.6562 23.6299C72.7457 23.7082 73.0475 23.8088 73.3269 23.8423C73.9082 23.9205 74.21 24.2112 73.9529 24.4571C73.8187 24.5912 73.7405 24.58 73.4052 24.323C73.0251 24.0323 71.9185 23.7305 69.7164 23.3169C69.1687 23.2163 68.4198 23.0151 68.0398 22.8698C67.425 22.6463 67.3132 22.568 67.1008 22.1209C66.799 21.5285 66.7878 21.4167 67.0226 21.5061C67.1232 21.5397 67.9168 21.7744 68.7775 22.0315ZM68.934 24.4459C69.0793 24.8818 69.9959 26.1449 70.3312 26.402C70.8231 26.7709 71.5049 27.1174 71.9632 27.218C72.2538 27.2739 72.3768 27.3857 72.4997 27.6763C72.5892 27.8887 72.7345 28.0899 72.8239 28.1346C72.9133 28.1681 72.9916 28.2687 72.9916 28.3582C72.9916 28.4699 72.891 28.4364 72.6339 28.2352C72.4327 28.0899 71.5384 27.5087 70.6442 26.9386C69.75 26.3797 68.8558 25.7537 68.6545 25.5637C68.3304 25.2619 67.8497 24.513 67.8497 24.3118C67.8497 24.2782 68.0733 24.2559 68.3527 24.2559C68.7328 24.2559 68.8781 24.3006 68.934 24.4459ZM54.984 26.0555C55.8112 26.4132 57.2419 27.4416 58.0132 28.2352C58.4156 28.6488 58.6615 28.9394 58.5721 28.8835C58.4715 28.8276 57.9126 28.4923 57.3314 28.1346C56.7389 27.7881 55.7664 27.2739 55.1628 26.9945C53.9333 26.4468 53.9333 26.4468 53.8327 26.0108C53.7544 25.6978 53.7656 25.6867 54.1233 25.7649C54.3245 25.8096 54.7157 25.9437 54.984 26.0555ZM76.6244 27.1733C77.3286 28.0452 77.4068 28.3582 76.725 27.5757C76.3002 27.0951 75.8307 26.3797 75.9314 26.3797C75.9649 26.3797 76.2667 26.7374 76.6244 27.1733ZM53.2067 28.0228C53.3297 28.4252 53.4191 28.7829 53.3967 28.8053C53.352 28.8388 52.7596 27.3857 52.7596 27.2404C52.7596 27.1845 52.8043 27.1845 52.8714 27.218C52.9273 27.2516 53.0838 27.6204 53.2067 28.0228ZM52.6366 28.2464C52.5249 28.8053 51.6642 30.5267 51.2282 31.0297L50.96 31.3538L51.1723 30.9067C51.2841 30.6608 51.653 29.7889 51.9771 28.973C52.5584 27.5087 52.8267 27.218 52.6366 28.2464ZM32.4717 30.0796C33.1759 31.1191 33.7125 32.4381 34.1596 34.193C34.3608 35.0202 34.5173 35.7132 34.4949 35.7356C34.4838 35.7579 34.0255 34.7072 33.4777 33.3994C32.9412 32.0916 32.2482 30.4931 31.9576 29.8448C31.3651 28.5705 31.4881 28.6264 32.4717 30.0796ZM78.424 31.5439C77.8875 32.6281 77.6527 33.7906 77.7198 34.9308C77.7869 36.0038 78.0104 36.641 78.9829 38.653C80.0225 40.7992 80.1007 40.9892 79.8771 40.8103C79.3183 40.352 77.5074 37.021 77.1162 35.7356C76.8144 34.7743 76.8479 34.5619 77.6304 32.5499C77.9657 31.6668 78.3011 30.7167 78.3793 30.4373L78.5023 29.9231L78.6588 30.3255C78.8152 30.7055 78.8041 30.7614 78.424 31.5439ZM107.844 33.4553C107.475 34.9196 107.14 36.0821 107.118 36.0597C107.084 36.0374 107.073 35.6126 107.073 35.1208C107.073 34.4613 107.151 34.0254 107.375 33.4106C107.744 32.371 108.448 30.7167 108.493 30.7726C108.515 30.7838 108.224 32.0022 107.844 33.4553ZM130.837 31.8121C131.15 32.0133 132.123 32.9187 133.017 33.813C134.235 35.0314 134.571 35.4338 134.403 35.4338C134.246 35.4338 133.553 34.8525 132.436 33.7794C131.497 32.874 130.491 31.9463 130.222 31.7115C129.809 31.365 129.775 31.298 129.999 31.3538C130.155 31.3986 130.535 31.5998 130.837 31.8121ZM80.3801 34.8972C80.6149 35.5567 80.7826 36.1044 80.749 36.1044C80.5925 36.1044 79.933 34.4054 79.8771 33.8689C79.8436 33.5335 79.8548 33.3547 79.8883 33.4665C79.9219 33.5894 80.1342 34.2266 80.3801 34.8972ZM89.2889 40.3297C89.0207 40.7097 88.7859 41.0115 88.7524 41.0115C88.7188 41.0227 88.5624 40.8103 88.3947 40.5421L88.0929 40.0726L88.5065 39.9944C88.73 39.9608 89.0989 39.849 89.3113 39.7596C89.5237 39.659 89.7137 39.6031 89.736 39.6255C89.7584 39.6478 89.5572 39.9608 89.2889 40.3297ZM11.2226 45.4044C10.5854 45.9633 8.11513 48.1766 6.98616 49.2049L6.20371 49.9091L7.23208 48.7355C7.79097 48.0871 8.52871 47.2935 8.85287 46.9694C9.42294 46.4216 11.4461 44.9573 11.6697 44.9462C11.7256 44.935 11.5244 45.1474 11.2226 45.4044ZM14.0841 51.8094C14.0841 51.8317 13.9723 51.91 13.8382 51.977C13.5923 52.1 13.5923 52.0888 13.7935 51.9323C14.0282 51.7423 14.0841 51.72 14.0841 51.8094Z" fill="white"/>
<path d="M117.156 25.5974C117.144 25.6869 117.223 26.0446 117.312 26.3799C117.402 26.7152 117.48 27.0394 117.48 27.0841C117.48 27.1288 117.256 27.017 116.977 26.827C116.697 26.637 116.474 26.5252 116.474 26.5699C116.485 26.7935 116.82 28.6378 116.988 29.3197C117.323 30.7057 117.077 31.3093 115.747 32.4607C114.037 33.9361 113.936 34.2044 114.104 36.6077C114.238 38.4073 114.171 39.0444 113.869 39.1003C113.758 39.1227 113.243 38.7203 112.562 38.072C111.936 37.4795 111.377 36.9989 111.321 36.9989C111.142 36.9989 111.209 37.323 111.455 37.569C111.578 37.6919 111.846 37.8708 112.047 37.949C112.752 38.2508 112.841 38.452 112.83 39.7822C112.819 40.6876 112.718 41.4253 112.394 42.9232C111.969 44.924 111.801 46.4107 111.936 47.0702C111.969 47.2937 112.36 47.9197 112.841 48.568C113.523 49.4622 113.679 49.7528 113.657 50.0211C113.623 50.3565 113.59 50.39 112.45 50.9042C112.059 51.083 112.036 51.4631 112.394 51.8208C112.651 52.0778 112.74 52.1002 113.21 52.0331C113.5 51.9996 113.914 51.8431 114.149 51.6978C115.144 51.0495 114.92 49.7864 113.411 47.6179C113.009 47.0366 112.673 46.4665 112.673 46.3548C112.673 46.0641 113.355 44.7452 114.562 42.6996C115.669 40.8329 116.083 40.0281 116.206 39.5474C116.261 39.2903 116.228 39.2233 115.993 39.1339C115.11 38.7985 115.188 37.2671 116.071 37.4907C116.809 37.6696 118.441 39.4133 119.537 41.1682C120.777 43.1579 121.258 44.8346 121.359 47.5061L121.426 49.3504L121.638 48.8474C122.085 47.8079 122.197 46.9807 122.152 45.2705C122.085 43.3926 122.186 43.6497 120.598 41.1235C119.291 39.0333 118.452 37.4125 118.206 36.4959C117.983 35.6575 117.972 34.4615 118.184 33.9697C118.273 33.7573 118.721 33.2431 119.19 32.8184C120.23 31.8906 120.285 31.7117 119.928 30.3927C119.469 28.6714 118.933 27.6989 118.307 27.4306C118.106 27.3524 117.916 27.1735 117.871 27.0506C117.726 26.5811 117.156 25.4409 117.156 25.5974Z" fill="white"/>
<path d="M120.654 30.7502C120.867 32.2927 120.923 33.3435 120.822 34.0588C120.587 35.7244 120.576 36.2721 120.777 36.9539C121.034 37.8481 121.414 38.34 121.85 38.34C122.141 38.34 122.219 38.2729 122.398 37.8593C122.543 37.5463 122.622 37.1328 122.622 36.6074C122.622 36.1715 122.666 35.7691 122.711 35.7132C122.756 35.6461 123.248 35.5902 123.795 35.579C124.354 35.579 124.969 35.5567 125.181 35.5343C125.55 35.4896 125.573 35.512 125.718 35.9814C125.796 36.2497 125.986 37.2893 126.131 38.2729C126.657 41.6486 126.634 41.8945 125.919 41.548C125.695 41.4474 125.494 41.358 125.45 41.358C125.416 41.358 125.416 41.5816 125.45 41.861C125.517 42.487 126.02 43.3365 126.523 43.6718C126.959 43.9736 127.082 43.9848 127.372 43.7724C127.786 43.4706 127.707 40.7879 127.216 37.904C126.947 36.4062 126.646 35.3108 126.165 34.1147L125.796 33.1981L125.204 33.7012C124.309 34.4613 124.041 34.5842 123.538 34.4165C122.957 34.2265 122.32 33.8129 122.096 33.4552C121.984 33.2987 121.671 32.5051 121.392 31.7115C120.844 30.1242 120.52 29.6995 120.654 30.7502Z" fill="white"/>
<path d="M71.427 48.6461C71.427 48.7467 71.4829 48.8696 71.5388 48.9032C71.6841 48.9926 71.6841 48.8473 71.5388 48.6237C71.4494 48.4784 71.427 48.4784 71.427 48.6461Z" fill="white"/>
</g>
<defs>
<clipPath id="clip0_24_139">
<rect width="143.077" height="71.5385" fill="white"/>
</clipPath>
</defs>
</svg>
